<svg xmlns="http://www.w3.org/2000/svg" width="25" height="25" viewBox="0 0 118.781 121.361">
  <path id="buffer-logo-svg-vector" d="M63.307.7C80.957,8.89,98.9,17.345,116.522,25.583c.94.44,2.174.739,2.175,2.071s-1.23,1.631-2.172,2.071q-26.541,12.418-53.1,24.79a9.3,9.3,0,0,1-8.168-.015Q28.658,42.1,2.053,29.655C1.13,29.225-.018,28.9.018,27.6c.033-1.214,1.132-1.53,2.01-1.94C19.834,17.344,37.821,8.893,55.65.624A11.408,11.408,0,0,1,63.307.7ZM59.334,121.361c-1.284,0-2.246-.487-4.08-1.174Q28.678,107.86,2.147,95.436C1.207,95-.011,94.686,0,93.346s1.23-1.627,2.171-2.074c2.935-1.4,5.885-2.76,8.833-4.126a9.959,9.959,0,0,1,8.827.039q17.594,8.247,35.205,16.455a9.8,9.8,0,0,0,8.713-.029Q81.409,95.343,99.067,87.1a9.637,9.637,0,0,1,8.386-.065c3.141,1.423,6.259,2.9,9.379,4.364a6.019,6.019,0,0,1,1.319.789,1.4,1.4,0,0,1-.006,2.336,8.535,8.535,0,0,1-1.743,1q-26.327,12.3-52.675,24.555a12.022,12.022,0,0,1-4.393,1.279ZM59.272,88.5a16.361,16.361,0,0,1-4.166-1.225Q28.64,74.984,2.219,62.6c-.947-.443-2.181-.728-2.205-2.047-.026-1.4,1.266-1.679,2.24-2.142q4.451-2.119,8.93-4.182a9.673,9.673,0,0,1,8.5.051q17.772,8.3,35.552,16.586a9.42,9.42,0,0,0,8.278-.012q17.836-8.305,35.662-16.631a9.477,9.477,0,0,1,8.277-.025c3.135,1.43,6.25,2.9,9.368,4.368a6.212,6.212,0,0,1,1.234.705,1.448,1.448,0,0,1-.019,2.5,6.285,6.285,0,0,1-1.234.7Q90.1,74.95,63.375,87.394A15.486,15.486,0,0,1,59.272,88.5Z" transform="translate(0 0)"/>
</svg>
