<svg xmlns="http://www.w3.org/2000/svg" width="25" height="25" viewBox="0 0 309.752 122">
  <g id="Group_9" data-name="Group 9" transform="translate(-554.854 -1074.228)">
    <text id="_12.3" data-name="12.3" transform="translate(554.854 1074.228)" font-size="90" font-family="NotoSans-Bold, Noto Sans" font-weight="700"><tspan x="0" y="96">12.3</tspan></text>
    <path id="Icon_awesome-coins" data-name="Icon awesome-coins" d="M0,72.106v7.6c0,6.28,15.3,11.386,34.158,11.386S68.317,85.983,68.317,79.7v-7.6c-7.348,5.177-20.78,7.6-34.158,7.6S7.348,77.283,0,72.106ZM56.931,22.772c18.858,0,34.158-5.106,34.158-11.386S75.789,0,56.931,0,22.772,5.106,22.772,11.386,38.072,22.772,56.931,22.772ZM0,53.444v9.18C0,68.9,15.3,74.01,34.158,74.01S68.317,68.9,68.317,62.624v-9.18c-7.348,6.049-20.8,9.18-34.158,9.18S7.348,59.492,0,53.444ZM74.01,55.4c10.194-1.975,17.079-5.64,17.079-9.856v-7.6c-4.127,2.918-10.194,4.91-17.079,6.138ZM34.158,28.465C15.3,28.465,0,34.834,0,42.7S15.3,56.931,34.158,56.931,68.317,50.561,68.317,42.7,53.017,28.465,34.158,28.465ZM73.173,38.481c10.674-1.921,17.915-5.693,17.915-10.016v-7.6c-6.316,4.465-17.168,6.867-28.59,7.437C67.747,30.849,71.608,34.265,73.173,38.481Z" transform="translate(773.518 1089.684)"/>
  </g>
</svg>
