<svg xmlns="http://www.w3.org/2000/svg" width="118.286" height="118.286" viewBox="0 0 118.286 118.286">
  <path id="Icon_awesome-compass" data-name="Icon awesome-compass" d="M53.749,54.309a7.631,7.631,0,1,0,10.791,0A7.629,7.629,0,0,0,53.749,54.309ZM59.143.563a59.143,59.143,0,1,0,59.143,59.143A59.142,59.142,0,0,0,59.143.563ZM89.225,35.869,73.492,70.294a7.617,7.617,0,0,1-3.761,3.761L35.309,89.787a4.715,4.715,0,0,1-6.248-6.248L44.8,49.115a7.617,7.617,0,0,1,3.761-3.761L82.979,29.621A4.714,4.714,0,0,1,89.225,35.869Z" transform="translate(0 -0.563)" fill="#231f20"/>
</svg>
