<svg xmlns="http://www.w3.org/2000/svg" width="140" height="112" viewBox="0 0 140 112">
  <path id="Icon_awesome-door-open" data-name="Icon awesome-door-open" d="M136.5,98H119V24.817A10.675,10.675,0,0,0,108.5,14H84V28h21v84h31.5a3.5,3.5,0,0,0,3.5-3.5v-7A3.5,3.5,0,0,0,136.5,98ZM68.3.221,26.3,11.1A7.209,7.209,0,0,0,21,18.139V98H3.5A3.5,3.5,0,0,0,0,101.5v7A3.5,3.5,0,0,0,3.5,112H77V7.258A7.059,7.059,0,0,0,68.3.221ZM57.75,63c-2.9,0-5.25-3.135-5.25-7s2.352-7,5.25-7S63,52.135,63,56,60.648,63,57.75,63Z" transform="translate(0 0)"/>
</svg>
