<svg xmlns="http://www.w3.org/2000/svg" width="140.001" height="112.001" viewBox="0 0 140.001 112.001">
  <path id="Icon_awesome-eye-slash" data-name="Icon awesome-eye-slash" d="M70,87.5A31.383,31.383,0,0,1,38.741,58.382L15.794,40.648a72.908,72.908,0,0,0-8.033,12.16,7.077,7.077,0,0,0,0,6.385C19.624,82.34,43.109,98,70,98a67.947,67.947,0,0,0,17.038-2.288L75.688,86.929A31.529,31.529,0,0,1,70,87.5Zm68.648,12.709-24.183-18.69a72.461,72.461,0,0,0,17.773-22.328,7.077,7.077,0,0,0,0-6.385C120.376,29.66,96.891,14,70,14a67.408,67.408,0,0,0-32.226,8.247L9.944.737a3.5,3.5,0,0,0-4.913.615L.737,6.88a3.5,3.5,0,0,0,.615,4.911l128.7,99.472a3.5,3.5,0,0,0,4.913-.615l4.3-5.528a3.5,3.5,0,0,0-.617-4.911ZM98.459,69.147l-8.6-6.646a20.728,20.728,0,0,0-25.4-26.672A10.423,10.423,0,0,1,66.5,42a10.2,10.2,0,0,1-.337,2.188l-16.1-12.445A31.13,31.13,0,0,1,70,24.5,31.483,31.483,0,0,1,101.5,56a30.753,30.753,0,0,1-3.041,13.149Z" transform="translate(0 0.001)"/>
</svg>
