<svg xmlns="http://www.w3.org/2000/svg" width="53.84" height="43.382" viewBox="0 0 53.84 43.382">
  <path id="Icon_awesome-eye-slash" data-name="Icon awesome-eye-slash" d="M8.662,10.627A99.763,99.763,0,0,0,2.8,19.037a2.551,2.551,0,0,0,0,2.3c4.277,8.344,12.259,14.029,22.437,13.99C35.723,35,37.17,32.052,36.24,32.027,36.148,31.954,10.47,12.148,8.662,10.627Zm41.321,25.5-8.718-6.738a26.122,26.122,0,0,0,6.407-8.049,2.551,2.551,0,0,0,0-2.3A25.293,25.293,0,0,0,25.235,5.047,24.3,24.3,0,0,0,13.618,8.02L3.585.265A1.262,1.262,0,0,0,1.814.487L.266,2.48A1.262,1.262,0,0,0,.488,4.25l46.4,35.86a1.262,1.262,0,0,0,1.771-.222L50.205,37.9c.913-1.161.328-1.343-.222-1.77Zm-14.488-11.2c-.1-.108-11.574-9.256-17.448-13.484a11.223,11.223,0,0,1,7.188-2.611A11.35,11.35,0,0,1,36.591,20.188a14.5,14.5,0,0,1-1.1,4.74Z" transform="translate(1.66 1.503)" fill="none" stroke="#262122" stroke-width="3"/>
</svg>
