<svg id="Слой_2" data-name="Слой 2" xmlns="http://www.w3.org/2000/svg" width="105.16" height="128.53" viewBox="0 0 105.16 128.53">
  <g id="Слой_1" data-name="Слой 1">
    <path id="Icon_material-headset-mic" data-name="Icon material-headset-mic" d="M52.58,0A52.58,52.58,0,0,0,0,52.58v40.9A17.51,17.51,0,0,0,17.47,111H32.13a2.92,2.92,0,0,0,2.92-2.92V67.19a2.91,2.91,0,0,0-2.92-2.92H14.61a2.92,2.92,0,0,1-2.92-2.92V52.58a40.9,40.9,0,1,1,81.792-1l0,9.76a2.92,2.92,0,0,1-2.92,2.92H73a2.92,2.92,0,0,0-2.92,2.92v40.89A2.92,2.92,0,0,0,73,111H90.56a2.93,2.93,0,0,1,2.92,2.93h0a2.92,2.92,0,0,1-2.92,2.92H55.5a2.92,2.92,0,0,0-2.92,2.92v5.84a2.92,2.92,0,0,0,2.92,2.92H87.63a17.49,17.49,0,0,0,17.53-17.47V52.58A52.58,52.58,0,0,0,52.58,0Z" fill="#231f20"/>
  </g>
</svg>
