<svg xmlns="http://www.w3.org/2000/svg" width="108.5" height="108.5" viewBox="0 0 108.5 108.5">
  <path id="Icon_awesome-history" data-name="Icon awesome-history" d="M110.25,55.9a54.252,54.252,0,0,1-88.3,42.341,5.246,5.246,0,0,1-.4-7.789l2.465-2.465a5.259,5.259,0,0,1,6.976-.434,40.252,40.252,0,1,0-2.569-60.878l11.1,11.1A3.5,3.5,0,0,1,37.05,43.75H5.25a3.5,3.5,0,0,1-3.5-3.5V8.45A3.5,3.5,0,0,1,7.725,5.975l10.8,10.8A54.249,54.249,0,0,1,110.25,55.9ZM70.675,73.131l2.149-2.763A5.25,5.25,0,0,0,71.9,63L63,56.076V33.25A5.25,5.25,0,0,0,57.75,28h-3.5A5.25,5.25,0,0,0,49,33.25V62.924L63.308,74.052A5.25,5.25,0,0,0,70.675,73.131Z" transform="translate(-1.75 -1.75)"/>
</svg>
