<svg xmlns="http://www.w3.org/2000/svg" width="40" height="40" viewBox="0 0 55 55">
  <g id="Group_4" data-name="Group 4" transform="translate(83.285 -0.165)">
    <g id="Group_24" data-name="Group 24" transform="translate(-83.285 0.165)">
      <path id="Path_14" data-name="Path 14" d="M42.3,47.233a17.4,17.4,0,0,0,3.149-10.076A17.948,17.948,0,0,0,42.614,27.5a17.682,17.682,0,0,0,2.834-9.656A17.4,17.4,0,0,0,42.3,7.767a24.666,24.666,0,0,1,0,39.466ZM2.834,27.5A24.65,24.65,0,0,1,12.7,7.767,17.4,17.4,0,0,0,9.552,17.844,17.948,17.948,0,0,0,12.385,27.5a17.948,17.948,0,0,0-2.834,9.656A17.4,17.4,0,0,0,12.7,47.233,24.65,24.65,0,0,1,2.834,27.5Zm32.223,3.359a8.74,8.74,0,0,0,.735-3.359,7.464,7.464,0,0,0-.735-3.359A15.109,15.109,0,0,1,39.046,27.5a15.43,15.43,0,0,1-3.989,3.359Zm-15.115,0A15.109,15.109,0,0,1,15.954,27.5a15.431,15.431,0,0,1,3.989-3.359,8.74,8.74,0,0,0-.735,3.359,9.19,9.19,0,0,0,.735,3.359ZM32.958,27.5a5.287,5.287,0,0,1-4.828,5.353H27.08A5.438,5.438,0,0,1,22.252,27.5,5.376,5.376,0,0,1,27.6,22.147,5.445,5.445,0,0,1,32.958,27.5Zm9.552,9.656a14.69,14.69,0,0,0-1.784-7.137,18.035,18.035,0,0,1-26.45,0A15.041,15.041,0,0,0,27.5,52.166h0a15.006,15.006,0,0,0,15.01-15.01ZM40.725,25.086A15.017,15.017,0,1,0,12.49,17.948a14.69,14.69,0,0,0,1.784,7.137A17.817,17.817,0,0,1,27.5,19.313a17.442,17.442,0,0,1,13.225,5.773ZM27.5,0a27.508,27.508,0,0,0-.945,55H27.5a27.5,27.5,0,1,0,0-55Z" fill="#231f20" fill-rule="evenodd"/>
      <path id="Path_15" data-name="Path 15" d="M29.2,27.2l-3.9,2.2a1.079,1.079,0,0,1-1.1,0,1.05,1.05,0,0,1-.5-.9V24a1.05,1.05,0,0,1,.5-.9.9.9,0,0,1,.5-.1.749.749,0,0,1,.5.1l3.9,2.2a1.05,1.05,0,0,1,.5.9A.951.951,0,0,1,29.2,27.2Z" transform="translate(1.326 1.304)" fill="#fa8200" fill-rule="evenodd"/>
    </g>
  </g>
</svg>
