<svg xmlns="http://www.w3.org/2000/svg" xmlns:xlink="http://www.w3.org/1999/xlink" width="382.211" height="90.423" viewBox="0 0 382.211 90.423">
  <defs>
    <linearGradient id="linear-gradient" x1="-0.014" y1="0.5" x2="1" y2="0.5" gradientUnits="objectBoundingBox">
      <stop offset="0" stop-color="#f8ad1a"/>
      <stop offset="1" stop-color="#ea5b1f"/>
    </linearGradient>
  </defs>
  <g id="Group_190" data-name="Group 190" transform="translate(-723.789 -68.289)">
    <text id="INFOCOIN" transform="translate(830 90.5)" fill="#262122" font-size="55" font-family="Helvetica-Bold, Helvetica" font-weight="700"><tspan x="0" y="42">INFOCOIN</tspan></text>
    <g id="Group_189" data-name="Group 189" transform="translate(807.074 68.123)">
      <g id="Group_24" data-name="Group 24" transform="translate(-83.285 0.165)">
        <path id="Path_14" data-name="Path 14" d="M69.543,77.653a28.61,28.61,0,0,0,5.177-16.566A29.507,29.507,0,0,0,70.06,45.211a29.07,29.07,0,0,0,4.659-15.876A28.61,28.61,0,0,0,69.543,12.77a40.552,40.552,0,0,1,0,64.883ZM4.659,45.211A40.526,40.526,0,0,1,20.88,12.77,28.61,28.61,0,0,0,15.7,29.336a29.507,29.507,0,0,0,4.659,15.876A29.507,29.507,0,0,0,15.7,61.087,28.61,28.61,0,0,0,20.88,77.653,40.526,40.526,0,0,1,4.659,45.211Zm52.977,5.522a14.369,14.369,0,0,0,1.208-5.522,12.271,12.271,0,0,0-1.208-5.522,24.841,24.841,0,0,1,6.557,5.522,25.368,25.368,0,0,1-6.557,5.522Zm-24.849,0a24.84,24.84,0,0,1-6.557-5.522,25.369,25.369,0,0,1,6.557-5.522,14.369,14.369,0,0,0-1.208,5.522,15.109,15.109,0,0,0,1.208,5.522Zm21.4-5.522a8.692,8.692,0,0,1-7.938,8.8H44.521a8.94,8.94,0,0,1-7.938-8.8,8.838,8.838,0,0,1,8.8-8.8,8.952,8.952,0,0,1,8.8,8.8Zm15.7,15.876a24.151,24.151,0,0,0-2.934-11.734,29.651,29.651,0,0,1-43.486,0A24.728,24.728,0,0,0,45.211,85.763h0A24.671,24.671,0,0,0,69.888,61.087ZM66.954,41.242A24.689,24.689,0,1,0,20.535,29.508a24.151,24.151,0,0,0,2.934,11.734,29.291,29.291,0,0,1,21.743-9.491,28.676,28.676,0,0,1,21.743,9.491ZM45.211,0a45.225,45.225,0,0,0-1.553,90.423h1.553A45.211,45.211,0,1,0,45.211,0Z" transform="translate(0 0)" fill-rule="evenodd" fill="url(#linear-gradient)"/>
        <path id="Path_15" data-name="Path 15" d="M32.742,29.905,26.33,33.522a1.774,1.774,0,0,1-1.808,0,1.727,1.727,0,0,1-.822-1.48v-7.4a1.727,1.727,0,0,1,.822-1.48A1.482,1.482,0,0,1,25.344,23a1.232,1.232,0,0,1,.822.164l6.412,3.617a1.727,1.727,0,0,1,.822,1.48A1.563,1.563,0,0,1,32.742,29.905Z" transform="translate(17.444 16.957)" fill="#262122" fill-rule="evenodd"/>
      </g>
    </g>
  </g>
</svg>
