<svg xmlns="http://www.w3.org/2000/svg" xmlns:xlink="http://www.w3.org/1999/xlink" width="171.637" height="171.725" viewBox="0 0 171.637 171.725">
  <defs>
    <clipPath id="clip-path">
      <rect width="135.02" height="133.153" fill="none"/>
    </clipPath>
    <linearGradient id="linear-gradient" y1="0.5" x2="1" y2="0.5" gradientUnits="objectBoundingBox">
      <stop offset="0" stop-color="#fd9600"/>
      <stop offset="1" stop-color="#ec4515"/>
    </linearGradient>
    <radialGradient id="radial-gradient" cx="0.5" cy="0.5" r="0.5" gradientTransform="translate(0)" gradientUnits="objectBoundingBox">
      <stop offset="0" stop-color="#a5a7ab"/>
      <stop offset="0.18" stop-color="#a5a7ab"/>
      <stop offset="0.25" stop-color="#fff"/>
      <stop offset="0.3" stop-color="#d2d4d6"/>
      <stop offset="0.44" stop-color="#eef0f1"/>
      <stop offset="0.55" stop-color="#eef0f1"/>
      <stop offset="0.86" stop-color="#babcbe"/>
      <stop offset="0.89" stop-color="#d6d8d7"/>
      <stop offset="0.92" stop-color="#d2d2d2"/>
      <stop offset="0.95" stop-color="#fff"/>
      <stop offset="1" stop-color="#d2d2d2"/>
    </radialGradient>
  </defs>
  <g id="Group_356" data-name="Group 356" transform="translate(-205.869 -184.453)">
    <path id="Path_32" data-name="Path 32" d="M205.869,251.96h5.146v24.646h-5.146Z" transform="translate(0 78.899)" fill="#f1f1f1" fill-rule="evenodd"/>
    <path id="Path_33" data-name="Path 33" d="M216.179,276.606h-4.808V251.96h5.4l9.887,17.3v-17.3h4.806v24.645h-5.127l-10.154-17.77Z" transform="translate(6.43 78.9)" fill="#f1f1f1" fill-rule="evenodd"/>
    <path id="Path_34" data-name="Path 34" d="M223.277,276.606V251.96h17.528v4.374H228.42v5.6h10.793v4.24H228.42v10.427h-5.142Z" transform="translate(20.346 78.9)" fill="#f1f1f1" fill-rule="evenodd"/>
    <path id="Path_35" data-name="Path 35" d="M249.382,271.006a9.889,9.889,0,0,0,1.774-6.263,10.3,10.3,0,0,0-1.774-6.4,6.388,6.388,0,0,0-9.838,0,10.288,10.288,0,0,0-1.776,6.4,9.9,9.9,0,0,0,1.768,6.263,6.5,6.5,0,0,0,9.846,0Zm-13.557,3.16q-3.2-3.471-3.2-9.389,0-6.038,3.2-9.582a12.311,12.311,0,0,1,17.285,0q3.182,3.549,3.186,9.582,0,5.921-3.186,9.389a12.492,12.492,0,0,1-17.285,0Z" transform="translate(31.268 78.539)" fill="#f1f1f1" fill-rule="evenodd"/>
    <path id="Path_36" data-name="Path 36" d="M267.232,268.331a10.137,10.137,0,0,1-3.344,6.788,10.7,10.7,0,0,1-7.311,2.518,10.443,10.443,0,0,1-8.256-3.472q-3.058-3.471-3.058-9.389,0-6.035,3.058-9.582a10.35,10.35,0,0,1,8.256-3.542,11.043,11.043,0,0,1,7.268,2.37,9.487,9.487,0,0,1,3.388,6.428h-5.146a4.626,4.626,0,0,0-1.722-3.171,5.785,5.785,0,0,0-3.732-1.171,5.218,5.218,0,0,0-4.5,2.288,10.787,10.787,0,0,0-1.629,6.346,10.355,10.355,0,0,0,1.622,6.194,5.244,5.244,0,0,0,4.5,2.238,5.39,5.39,0,0,0,3.732-1.308,5.326,5.326,0,0,0,1.722-3.537Z" transform="translate(46.041 78.541)" fill="#f1f1f1" fill-rule="evenodd"/>
    <path id="Path_37" data-name="Path 37" d="M273.684,271.006a9.876,9.876,0,0,0,1.776-6.263,10.288,10.288,0,0,0-1.776-6.4,6.384,6.384,0,0,0-9.833,0,10.274,10.274,0,0,0-1.778,6.4,9.9,9.9,0,0,0,1.768,6.263,6.5,6.5,0,0,0,9.844,0Zm-13.555,3.16q-3.2-3.471-3.205-9.389,0-6.038,3.205-9.582a12.308,12.308,0,0,1,17.283,0q3.2,3.549,3.192,9.582,0,5.921-3.192,9.389a12.489,12.489,0,0,1-17.283,0Z" transform="translate(59.671 78.539)" fill="#f1f1f1" fill-rule="evenodd"/>
    <path id="Path_38" data-name="Path 38" d="M269.883,251.96h5.142v24.646h-5.142Z" transform="translate(74.817 78.899)" fill="#f1f1f1" fill-rule="evenodd"/>
    <path id="Path_39" data-name="Path 39" d="M280.558,276.606h-4.811V251.96h5.4l9.885,17.3v-17.3h4.8v24.645h-5.125l-10.152-17.77Z" transform="translate(81.671 78.9)" fill="#f1f1f1" fill-rule="evenodd"/>
    <g id="Repeat_Grid_2" data-name="Repeat Grid 2" transform="translate(224.177 184.453)" clip-path="url(#clip-path)">
      <g id="Group_372" data-name="Group 372" transform="translate(-224.177 -184.453)">
        <path id="Path_40" data-name="Path 40" d="M244.628,317.606h74.384A30.41,30.41,0,0,0,349.331,287.3h0V214.77a30.409,30.409,0,0,0-30.319-30.317H244.628a30.4,30.4,0,0,0-30.317,30.317V287.3A30.405,30.405,0,0,0,244.628,317.606Z" transform="translate(9.866)" fill-rule="evenodd" fill="url(#linear-gradient)"/>
      </g>
    </g>
    <path id="Path_41" data-name="Path 41" d="M219.148,245.878a57.082,57.082,0,0,0,55.115,56.975h0c.629.033,1.264.046,1.9.046h.007a57.079,57.079,0,0,0,57.017-57.021h0a57.021,57.021,0,0,0-114.042,0Zm25.908-19.931a31.146,31.146,0,0,1,31.111-31.113h0a31.15,31.15,0,0,1,31.117,31.113h0a30.908,30.908,0,0,1-3.771,14.836h0a37.006,37.006,0,0,0-27.346-12.063h0a37.013,37.013,0,0,0-27.339,12.056h0a30.888,30.888,0,0,1-3.771-14.83Zm68.205,39.86a36.872,36.872,0,0,0-5.84-19.931h0a36.842,36.842,0,0,0,5.84-19.929h0a36.844,36.844,0,0,0-6.452-20.868h0a50.989,50.989,0,0,1,20.406,40.8h0a50.99,50.99,0,0,1-20.4,40.8h0a36.861,36.861,0,0,0,6.45-20.87Zm-88.141-19.929a51,51,0,0,1,20.406-40.8h0a36.833,36.833,0,0,0-6.448,20.866h0a36.874,36.874,0,0,0,5.834,19.929h0a36.9,36.9,0,0,0-5.834,19.931h0a36.842,36.842,0,0,0,6.448,20.87h0a51,51,0,0,1-20.406-40.8ZM275.024,257a11.2,11.2,0,0,1-10.037-11.124h0a11.2,11.2,0,0,1,11.18-11.184h0a11.2,11.2,0,0,1,11.187,11.184h0A11.2,11.2,0,0,1,277.31,257h0c-.38.013-.755.056-1.143.056h0c-.384,0-.753-.043-1.143-.056Zm18.3-11.124A17.109,17.109,0,0,0,291.873,239h0a31.238,31.238,0,0,1,8.161,6.879h0a31.3,31.3,0,0,1-8.161,6.884h0a16.977,16.977,0,0,0,1.451-6.881Zm-41.018,0A31.264,31.264,0,0,1,260.465,239h0a17.074,17.074,0,0,0-1.453,6.882h0a17.086,17.086,0,0,0,1.451,6.881h0a31.348,31.348,0,0,1-8.157-6.884Zm51.207,5.1a30.876,30.876,0,0,1,3.771,14.83h0a31.149,31.149,0,0,1-31.117,31.113h0a31.144,31.144,0,0,1-31.106-31.113h0a30.9,30.9,0,0,1,3.771-14.83h0a37,37,0,0,0,27.339,12.058h0a37.01,37.01,0,0,0,27.346-12.058Z" transform="translate(15.52 5.152)" fill-rule="evenodd" fill="url(#radial-gradient)"/>
    <path id="Path_42" data-name="Path 42" d="M254.8,221.018l-8.406,4.854a2.262,2.262,0,0,1-2.288,0,2.285,2.285,0,0,1-1.147-1.984V214.18a2.3,2.3,0,0,1,2.292-2.295,2.257,2.257,0,0,1,1.143.31l8.406,4.854a2.3,2.3,0,0,1,0,3.969Z" transform="translate(43.344 32.061)" fill="#070707" fill-rule="evenodd"/>
  </g>
</svg>
