<svg id="Component_3_569" data-name="Component 3 – 569" xmlns="http://www.w3.org/2000/svg" width="57.6" height="50.272" viewBox="0 0 57.6 50.272">
  <g id="volume_unmuted_icon_143478" transform="translate(7.225 8.154)">
    <path id="Path_27" data-name="Path 27" d="M25.5,45.773A5.519,5.519,0,0,1,22.44,44.5L11.858,34H4.25A4.262,4.262,0,0,1,0,29.75v-8.5A4.262,4.262,0,0,1,4.25,17h7.608L22.44,6.5a4.276,4.276,0,0,1,7.31,2.975v32a4.318,4.318,0,0,1-4.25,4.292Z" transform="translate(0 -5.235)" fill="none" stroke="#262122" stroke-width="3"/>
    <path id="Path_28" data-name="Path 28" d="M37.23,37.095a10.25,10.25,0,0,0,3.145-7.422,10.383,10.383,0,0,0-3.1-7.422M44.03,45.772a27.523,27.523,0,0,0,4.845-16.1A27.474,27.474,0,0,0,43.86,13.345" transform="translate(0 -9.29)" fill="none" stroke="#262122" stroke-linecap="round" stroke-width="3"/>
  </g>
  <rect id="Rectangle_9" data-name="Rectangle 9" width="1.547" height="8" rx="0.773" transform="translate(5.657) rotate(45)" fill="#ff5858" opacity="0"/>
</svg>
