<svg xmlns="http://www.w3.org/2000/svg" width="338" height="169" viewBox="0 0 338 169">
  <g id="Group_161" data-name="Group 161" transform="translate(-968.5 -288.25)">
    <g id="Rectangle_34" data-name="Rectangle 34" transform="translate(968.5 288.25)" fill="#f1f1f1" stroke="#fff" stroke-width="10">
      <rect width="338" height="169" rx="25" stroke="none"/>
      <rect x="5" y="5" width="328" height="159" rx="20" fill="none"/>
    </g>
    <path id="Rectangle_35" data-name="Rectangle 35" d="M20,0H318a20,20,0,0,1,20,20V33a0,0,0,0,1,0,0H0a0,0,0,0,1,0,0V20A20,20,0,0,1,20,0Z" transform="translate(968.5 289.25)" fill="#fff"/>
    <rect id="Rectangle_36" data-name="Rectangle 36" width="163" height="70" rx="20" transform="translate(1050.5 357.25)" fill="#231f20"/>
    <rect id="Rectangle_37" data-name="Rectangle 37" width="169" height="10" rx="5" transform="translate(1047.5 338.25)" fill="#231f20"/>
    <rect id="Rectangle_38" data-name="Rectangle 38" width="25" height="7" rx="3.5" transform="translate(982.5 302.25)" fill="#231f20"/>
    <rect id="Rectangle_39" data-name="Rectangle 39" width="59" height="5" rx="2.5" transform="translate(1233.5 302.25)" fill="#231f20"/>
  </g>
</svg>
