<svg xmlns="http://www.w3.org/2000/svg" width="40" height="40" viewBox="0 0 116.831 120.108">
  <path id="Icon_material-settings" data-name="Icon material-settings" d="M113.645,75.273a46.8,46.8,0,0,0,.42-5.885,46.8,46.8,0,0,0-.42-5.885l12.671-9.909a3.03,3.03,0,0,0,.721-3.843L115.027,28.971a3.018,3.018,0,0,0-3.663-1.321L96.41,33.655A43.876,43.876,0,0,0,86.261,27.77L83.979,11.856a2.928,2.928,0,0,0-2.943-2.522H57.014a2.928,2.928,0,0,0-2.943,2.522L51.79,27.77A46.138,46.138,0,0,0,41.64,33.655L26.687,27.65a2.929,2.929,0,0,0-3.663,1.321L11.013,49.75a2.961,2.961,0,0,0,.721,3.843L24.4,63.5a47.626,47.626,0,0,0-.42,5.885,47.626,47.626,0,0,0,.42,5.885L11.733,85.182a3.03,3.03,0,0,0-.721,3.843L23.024,109.8a3.018,3.018,0,0,0,3.663,1.321L41.64,105.12A43.876,43.876,0,0,0,51.79,111l2.282,15.914a2.928,2.928,0,0,0,2.943,2.522H81.036a2.928,2.928,0,0,0,2.943-2.522L86.261,111A46.139,46.139,0,0,0,96.41,105.12l14.953,6.005a2.929,2.929,0,0,0,3.663-1.321l12.011-20.779a3.03,3.03,0,0,0-.721-3.843l-12.671-9.909ZM69.025,90.406A21.019,21.019,0,1,1,90.044,69.387,21.042,21.042,0,0,1,69.025,90.406Z" transform="translate(-10.596 -9.333)"/>
</svg>
