<svg xmlns="http://www.w3.org/2000/svg" width="25" height="25" viewBox="0 0 125.714 110">
  <path id="Icon_awesome-wallet" data-name="Icon awesome-wallet" d="M113.241,30.571h-93.6a3.929,3.929,0,1,1,0-7.857h94.286a3.927,3.927,0,0,0,3.929-3.929A11.786,11.786,0,0,0,106.071,7H15.714A15.713,15.713,0,0,0,0,22.714v78.571A15.713,15.713,0,0,0,15.714,117h97.527c6.88,0,12.473-5.286,12.473-11.786V42.357C125.714,35.858,120.121,30.571,113.241,30.571Zm-11.1,51.071A7.857,7.857,0,1,1,110,73.786,7.858,7.858,0,0,1,102.143,81.643Z" transform="translate(0 -7)"/>
</svg>
