<svg xmlns="http://www.w3.org/2000/svg" width="32" height="23.081" viewBox="0 0 32 23.081">
  <g id="Icon_feather-youtube" data-name="Icon feather-youtube" transform="translate(7.59 -6.284)">
    <path id="Path_37" data-name="Path 37" d="M30.871,9.3a3.791,3.791,0,0,0-2.645-2.727C25.88,6,16.5,6,16.5,6S7.118,6,4.772,6.627A3.791,3.791,0,0,0,2.127,9.354,39.544,39.544,0,0,0,1.5,16.568a39.543,39.543,0,0,0,.627,7.268,3.791,3.791,0,0,0,2.645,2.618c2.345.627,11.727.627,11.727.627s9.381,0,11.727-.627a3.791,3.791,0,0,0,2.645-2.727,39.544,39.544,0,0,0,.627-7.159A39.542,39.542,0,0,0,30.871,9.3Z" transform="translate(-8.089 1.284)" fill="none" stroke="#262122" stroke-linecap="round" stroke-linejoin="round" stroke-width="2"/>
    <g id="Polygon_5" data-name="Polygon 5" transform="translate(15.337 11.824) rotate(90)" fill="#262122">
      <path d="M 8.63090991973877 10.50000095367432 L 3.369080066680908 10.50000095367432 C 2.834369897842407 10.50000095367432 2.352190017700195 10.22549152374268 2.079240083694458 9.765691757202148 C 1.806290030479431 9.305901527404785 1.796190023422241 8.751141548156738 2.052239894866943 8.281731605529785 L 4.683159828186035 3.458381414413452 C 4.950150012969971 2.968891382217407 5.442430019378662 2.676651239395142 6 2.676651239395142 C 6.557569980621338 2.676651239395142 7.049849987030029 2.968891382217407 7.316840171813965 3.45837140083313 L 9.947759628295898 8.281731605529785 C 10.20380973815918 8.751141548156738 10.19371032714844 9.305891036987305 9.920760154724121 9.765691757202148 C 9.647809982299805 10.22549152374268 9.165619850158691 10.50000095367432 8.63090991973877 10.50000095367432 Z" stroke="none"/>
      <path d="M 6 3.176651000976562 C 5.821509838104248 3.176651000976562 5.378670215606689 3.227431297302246 5.122109889984131 3.69780158996582 L 2.491189956665039 8.521141052246094 C 2.245140075683594 8.972221374511719 2.421810150146484 9.363271713256836 2.509189605712891 9.510461807250977 C 2.596559524536133 9.657651901245117 2.855270385742188 10.00000190734863 3.36907958984375 10.00000190734863 L 8.63090991973877 10.00000190734863 C 9.144729614257812 10.00000190734863 9.403440475463867 9.657651901245117 9.490810394287109 9.510461807250977 C 9.578189849853516 9.363271713256836 9.754859924316406 8.972221374511719 9.508810043334961 8.521141052246094 L 6.877890110015869 3.69780158996582 C 6.621329784393311 3.227431297302246 6.178490161895752 3.176651000976562 6 3.176651000976562 M 6 2.176653861999512 C 6.688387393951416 2.176653861999512 7.376774787902832 2.524085998535156 7.755790233612061 3.218951225280762 L 10.38671016693115 8.042291641235352 C 11.11365985870361 9.375041007995605 10.14902973175049 11.00000095367432 8.63090991973877 11.00000095367432 L 3.36907958984375 11.00000095367432 C 1.850970268249512 11.00000095367432 0.8863401412963867 9.375041007995605 1.613289833068848 8.042291641235352 L 4.244209766387939 3.218951225280762 C 4.623225212097168 2.524085998535156 5.311612606048584 2.176653861999512 6 2.176653861999512 Z" stroke="none" fill="#262122"/>
    </g>
  </g>
</svg>
